Coordinates
version=1
nRows=14
nColumns=40
inDegrees=yes

Units are S.I. units (second, meters, Newtons, ...)
Angles are in degrees.

endheader
time	pelvis_tilt	pelvis_list	pelvis_rotation	pelvis_tx	pelvis_ty	pelvis_tz	hip_flexion_r	hip_adduction_r	hip_rotation_r	knee_angle_r	knee_angle_r_beta	ankle_angle_r	subtalar_angle_r	mtp_angle_r	hip_flexion_l	hip_adduction_l	hip_rotation_l	knee_angle_l	knee_angle_l_beta	ankle_angle_l	subtalar_angle_l	mtp_angle_l	lumbar_extension	lumbar_bending	lumbar_rotation	arm_flex_r	arm_add_r	arm_rot_r	elbow_flex_r	pro_sup_r	wrist_flex_r	wrist_dev_r	arm_flex_l	arm_add_l	arm_rot_l	elbow_flex_l	pro_sup_l	wrist_flex_l	wrist_dev_l
     14.21314286	     -4.04461287	     -5.21041041	     -2.42093549	      0.75594213	      0.93574730	      0.41829456	     30.42336057	     -2.36011491	     -6.48324388	     45.44259392	     45.44259392	      6.45681822	    -16.02046598	      5.85940185	     10.42916102	     -4.92814484	     -9.66151147	     17.63624830	     17.63624830	     12.82006411	     -9.15526804	     -3.17442570	     -9.99553678	      5.62235007	      1.49251084	     -1.42515454	    -12.92571204	     -1.87062639	     24.05209659	     46.55841872	      0.00000000	      0.00000000	     16.24797252	    -17.42433149	     -7.03101294	     53.46000870	     46.68345700	      0.00000000	      0.00000000
     14.22628571	     -4.07555617	     -5.13326304	     -2.80017127	      0.75572217	      0.93562317	      0.41907345	     30.32199507	     -2.14819611	     -6.80705310	     41.83578278	     41.83578278	      6.20612937	    -14.71375683	      5.30170674	      9.71573422	     -4.87475317	    -10.09148588	     17.20342100	     17.20342100	     13.08941315	     -8.93080975	     -3.27190461	    -10.01981865	      5.59064286	      1.60887427	     -3.16189987	    -13.11835310	     -2.14650463	     23.52593192	     46.59015029	      0.00000000	      0.00000000	     16.88065235	    -17.76587942	     -7.59953132	     55.21325729	     46.76298685	      0.00000000	      0.00000000
     14.23942857	     -4.19432969	     -5.01720193	     -3.14532086	      0.75553784	      0.93526597	      0.41995214	     30.08557242	     -1.95328325	     -7.27074113	     37.79206556	     37.79206556	      4.86148847	    -13.55396091	      1.98283174	      9.09501927	     -4.79473647	    -10.56938827	     16.75244448	     16.75244448	     13.23668685	     -8.60794967	     -3.73053874	     -9.94826451	      5.48663413	      1.14588493	     -4.70553036	    -13.19536358	     -3.53294736	     23.73281499	     46.69251594	      0.00000000	      0.00000000	     16.46570512	    -18.29528214	     -9.01545729	     58.57905981	     46.93541748	      0.00000000	      0.00000000
     14.25257143	     -4.27795311	     -4.94096887	     -3.47952853	      0.75539158	      0.93497253	      0.42098657	     29.80355547	     -1.67718596	     -7.79406818	     33.87704980	     33.87704980	      4.61721356	    -11.51460776	      2.09606767	      8.38222336	     -4.71900252	    -10.90160844	     16.20836807	     16.20836807	     13.46410869	     -8.46088292	     -3.85752474	     -9.86925833	      5.45815070	      1.23889087	     -6.19432850	    -13.37240144	     -3.70775096	     23.08987997	     46.72254866	      0.00000000	      0.00000000	     17.24597120	    -18.60536226	     -9.33913646	     59.52738693	     46.98397949	      0.00000000	      0.00000000
     14.26571429	     -4.34960559	     -4.79102958	     -3.81956730	      0.75539923	      0.93455771	      0.42212019	     29.40182741	     -1.49023984	     -8.49976548	     29.92471553	     29.92471553	      4.29239500	     -8.91125135	      1.96871380	      7.58312509	     -4.56196184	    -11.33973988	     15.52982330	     15.52982330	     13.60627115	     -8.13793108	     -4.19685758	     -9.79723547	      5.34173373	      1.40247547	     -7.71489258	    -13.45190696	     -4.08604451	     22.71100421	     46.75886286	      0.00000000	      0.00000000	     17.86376601	    -18.83071023	     -9.76689902	     61.06752055	     47.04890470	      0.00000000	      0.00000000
     14.27885714	     -4.48137849	     -4.68646250	     -4.09922334	      0.75549069	      0.93394649	      0.42335808	     28.97609546	     -1.17845768	     -9.19024286	     25.98802511	     25.98802511	      3.86794055	     -6.41421922	      2.25318245	      6.88675083	     -4.45654157	    -11.67017969	     14.92275846	     14.92275846	     13.75805194	     -7.90490600	     -4.55546669	     -9.62746360	      5.31355188	      1.39516720	     -9.09143915	    -13.58877910	     -4.43161639	     22.43854074	     46.78871152	      0.00000000	      0.00000000	     18.32481887	    -19.11609108	    -10.13066353	     62.38155156	     47.10335703	      0.00000000	      0.00000000
     14.29200000	     -4.53183267	     -4.47430090	     -4.37949879	      0.75576694	      0.93320078	      0.42467830	     28.48257358	     -1.02394979	    -10.12570720	     22.33982831	     22.33982831	      3.36512249	     -3.36410474	      2.23290482	      5.98778413	     -4.20086220	    -12.03675357	     14.06382265	     14.06382265	     13.42086401	     -7.82258902	     -6.00182592	     -9.59810731	      5.11987462	      1.18243075	    -10.42527170	    -13.55900528	     -6.18759317	     22.93684772	     46.90980292	      0.00000000	      0.00000000	     18.08397625	    -19.46288554	    -11.10967956	     65.20271092	     47.23592361	      0.00000000	      0.00000000
     14.30514286	     -4.76437514	     -4.19449568	     -4.65787008	      0.75591712	      0.93210312	      0.42624700	     28.24771430	     -0.75410351	    -10.49486948	     19.01272224	     19.01272224	      2.77221035	     -1.33847518	      3.06015550	      5.47650336	     -3.92450920	    -12.34860888	     13.58481873	     13.58481873	     13.62239084	     -7.67836610	     -6.19400004	     -9.25033693	      4.85153167	      1.20670835	    -11.47349902	    -13.47914687	     -6.31834680	     22.56245064	     46.92657390	      0.00000000	      0.00000000	     18.67030825	    -19.73673212	    -11.31537082	     65.94057613	     47.26918358	      0.00000000	      0.00000000
     14.31828571	     -4.54337134	     -4.05446420	     -4.85979750	      0.75671416	      0.93152919	      0.42768631	     27.47981467	     -0.60586183	    -11.86111982	     16.19162739	     16.19162739	      2.80127600	      2.22421414	      4.34635827	      4.21152537	     -3.71521028	    -12.73161148	     12.67944364	     12.67944364	     13.66402689	     -7.19254058	     -6.91775774	     -9.46844408	      4.76533647	      1.42899742	    -12.66296555	    -13.54935334	     -6.98402327	     22.47871649	     46.97611792	      0.00000000	      0.00000000	     19.02970043	    -19.73046098	    -11.65526710	     67.76227656	     47.33318421	      0.00000000	      0.00000000
     14.33142857	     -4.57657391	     -3.89832966	     -5.05853997	      0.75729263	      0.93048169	      0.42934814	     27.16911807	     -0.36604921	    -12.67655996	     14.03865522	     14.03865522	      3.18028472	      4.55778324	      7.33413251	      3.38152049	     -3.52028841	    -12.85951794	     12.00059657	     12.00059657	     13.41683041	     -7.36601610	     -8.13625814	     -9.39970090	      4.66502566	      1.28722646	    -13.49332128	    -13.41985588	     -8.76352828	     22.72627251	     47.10268273	      0.00000000	      0.00000000	     18.95767723	    -19.95207152	    -12.29579593	     69.63537505	     47.43486032	      0.00000000	      0.00000000
     14.34457143	     -4.48904550	     -3.77688338	     -5.22270218	      0.75816636	      0.92948505	      0.43116233	     26.65305933	     -0.07783676	    -13.37650547	     12.14911160	     12.14911160	      2.87875814	      6.24882675	      8.08573992	      2.47523376	     -3.39463958	    -13.10998687	     11.51983268	     11.51983268	     13.71339747	     -7.08873171	     -8.33302811	     -9.39159594	      4.57325235	      1.47161991	    -14.28833315	    -13.39183334	     -9.04617968	     22.45595858	     47.12765948	      0.00000000	      0.00000000	     19.39318107	    -19.95555606	    -12.43479132	     70.53229898	     47.46673607	      0.00000000	      0.00000000
     14.35771429	     -4.48763460	     -3.59232349	     -5.36139669	      0.75908923	      0.92824202	      0.43296542	     26.38156037	      0.08063664	    -13.86782956	     10.97422389	     10.97422389	      2.68579479	      7.46908166	      8.66260073	      1.75825141	     -3.22133129	    -13.31669993	     11.20083376	     11.20083376	     14.05689843	     -6.85622672	     -8.54773051	     -9.21238005	      4.50028674	      1.51041823	    -14.86113498	    -13.27417430	     -9.33793834	     22.39981788	     47.14598419	      0.00000000	      0.00000000	     19.64750641	    -19.97624583	    -12.58639848	     71.45050199	     47.49923503	      0.00000000	      0.00000000
     14.37085714	     -4.57586013	     -3.42673660	     -5.46553971	      0.75992135	      0.92665298	      0.43490673	     26.54219864	      0.19543359	    -13.99690983	     10.82870273	     10.82870273	      2.62288726	      7.48595357	      8.71643739	      1.31127591	     -3.11183753	    -13.39968375	     11.20013339	     11.20013339	     14.49291390	     -6.97797879	     -8.69458285	     -8.99116056	      4.46021955	      1.35805729	    -15.04278308	    -13.25005579	     -9.35455407	     22.34655983	     47.14770298	      0.00000000	      0.00000000	     19.79995560	    -20.02512529	    -12.61005413	     71.55898307	     47.50398443	      0.00000000	      0.00000000
     14.38400000	     -4.45106118	     -3.42656980	     -5.51212956	      0.76128109	      0.92567753	      0.43700348	     25.78567603	      0.49468153	    -14.56443592	      9.84513351	      9.84513351	      2.24431691	      8.51141227	      8.80632277	      0.42624704	     -3.16117708	    -13.57741415	     10.89318639	     10.89318639	     14.94725945	     -6.49270005	     -8.65298936	     -9.04220670	      4.51943210	      1.64209350	    -15.65867740	    -13.09401646	     -9.62927945	     22.34761583	     47.16151337	      0.00000000	      0.00000000	     19.99165344	    -19.83825093	    -12.82086031	     72.95724882	     47.54801019	      0.00000000	      0.00000000
